<svg width="63" height="26" viewBox="0 0 63 26" fill="none" xmlns="http://www.w3.org/2000/svg">
<g style="mix-blend-mode:luminosity" opacity="0.25">
<path d="M40.3882 20.6997V4.15104C40.3882 4.08487 40.3634 4.02164 40.3185 3.9741L37.6033 1.07793C37.5566 1.02794 37.4921 1 37.4244 1H23.859C23.722 1 23.6108 1.1142 23.6108 1.25487V20.4449C23.6108 20.5855 23.722 20.6997 23.859 20.6997H40.2735" stroke="#0C3F4A" stroke-miterlimit="10" stroke-linecap="round"/>
<path d="M28.2345 13.51H35.7654" stroke="#2094E8" stroke-miterlimit="10" stroke-linecap="round"/>
<path d="M28.2345 15.768H33.9349" stroke="#2094E8" stroke-miterlimit="10" stroke-linecap="round"/>
<path d="M31.9996 7.18733C32.7884 7.18733 33.4278 6.53055 33.4278 5.72037C33.4278 4.9102 32.7884 4.25342 31.9996 4.25342C31.2108 4.25342 30.5714 4.9102 30.5714 5.72037C30.5714 6.53055 31.2108 7.18733 31.9996 7.18733Z" stroke="#2094E8" stroke-miterlimit="10" stroke-linecap="round"/>
<path d="M31.5067 7.18738H32.4926C33.3959 7.18738 34.1298 7.94071 34.1298 8.86901V10.2713H29.8695V8.86901C29.8695 7.9412 30.6029 7.18738 31.5067 7.18738Z" stroke="#2094E8" stroke-miterlimit="10" stroke-linecap="round"/>
</g>
<g style="mix-blend-mode:luminosity" opacity="0.25">
<path d="M22.1697 20.5399L17.9997 4.55508C17.983 4.49117 17.9431 4.43669 17.8878 4.4027L14.5353 2.32701C14.4776 2.29116 14.4083 2.2813 14.3429 2.29931L1.23968 5.90553C1.1074 5.94194 1.02878 6.08181 1.06422 6.21768L5.89979 24.7538C5.93524 24.8897 6.07141 24.9704 6.20369 24.934L22.0589 20.5704" stroke="#0C3F4A" stroke-miterlimit="10" stroke-linecap="round"/>
<path d="M8.61841 16.8261L15.8927 14.8241" stroke="#2094E8" stroke-miterlimit="10" stroke-linecap="round"/>
<path d="M9.18738 19.0072L14.6936 17.4918" stroke="#2094E8" stroke-miterlimit="10" stroke-linecap="round"/>
<path d="M10.6621 9.71794C11.424 9.50825 11.8761 8.70386 11.672 7.92129C11.4678 7.13872 10.6847 6.67431 9.92276 6.884C9.16086 7.09369 8.70871 7.89807 8.91286 8.68064C9.11701 9.46321 9.90016 9.92762 10.6621 9.71794Z" stroke="#2094E8" stroke-miterlimit="10" stroke-linecap="round"/>
<path d="M10.1859 9.849L11.1382 9.58692C12.0107 9.34679 12.9095 9.87934 13.1434 10.776L13.4967 12.1305L9.38158 13.263L9.02824 11.9086C8.79444 11.0124 9.31293 10.0893 10.1859 9.849Z" stroke="#2094E8" stroke-miterlimit="10" stroke-linecap="round"/>
</g>
<g style="mix-blend-mode:luminosity" opacity="0.25">
<path d="M58.036 25L62.206 9.01519C62.2226 8.95128 62.2146 8.88361 62.1832 8.82576L60.2904 5.30648C60.2578 5.24575 60.2026 5.20164 60.1372 5.18363L47.034 1.57741C46.9017 1.541 46.7655 1.62175 46.7301 1.75763L41.8945 20.2937C41.8591 20.4296 41.9377 20.5695 42.07 20.6059L57.9252 24.9695" stroke="#0C3F4A" stroke-miterlimit="10" stroke-linecap="round"/>
<path d="M48.108 14.8243L55.3823 16.8263" stroke="#2094E8" stroke-miterlimit="10" stroke-linecap="round"/>
<path d="M47.5391 17.0054L53.0453 18.5208" stroke="#2094E8" stroke-miterlimit="10" stroke-linecap="round"/>
<path d="M53.3381 9.71801C54.1 9.9277 54.8832 9.46329 55.0873 8.68072C55.2915 7.89814 54.8393 7.09376 54.0774 6.88407C53.3155 6.67438 52.5324 7.13879 52.3282 7.92136C52.1241 8.70393 52.5762 9.50832 53.3381 9.71801Z" stroke="#2094E8" stroke-miterlimit="10" stroke-linecap="round"/>
<path d="M52.8621 9.58703L53.8143 9.84911C54.6869 10.0892 55.206 11.012 54.972 11.9087L54.6187 13.2632L50.5035 12.1306L50.8569 10.7761C51.0907 9.87993 51.9891 9.34677 52.8621 9.58703Z" stroke="#2094E8" stroke-miterlimit="10" stroke-linecap="round"/>
</g>
</svg>
